<?xml version="1.0" encoding="UTF-8" standalone="no"?>
<svg
   xmlns:dc="http://purl.org/dc/elements/1.1/"
   xmlns:cc="http://creativecommons.org/ns#"
   xmlns:rdf="http://www.w3.org/1999/02/22-rdf-syntax-ns#"
   xmlns:svg="http://www.w3.org/2000/svg"
   xmlns="http://www.w3.org/2000/svg"
   xmlns:sodipodi="http://sodipodi.sourceforge.net/DTD/sodipodi-0.dtd"
   xmlns:inkscape="http://www.inkscape.org/namespaces/inkscape"
   inkscape:export-ydpi="9"
   inkscape:export-xdpi="9"
   inkscape:export-filename="C:\Users\josep\Documents\GitHub\webin-R\images\favicon.png"
   id="Capa_1"
   enable-background="new 0 0 512 512"
   height="512"
   viewBox="0 0 511.99999 512"
   width="512"
   version="1.1"
   sodipodi:docname="favicon.svg"
   inkscape:version="1.0 (4035a4fb49, 2020-05-01)">
  <metadata
     id="metadata21">
    <rdf:RDF>
      <cc:Work
         rdf:about="">
        <dc:format>image/svg+xml</dc:format>
        <dc:type
           rdf:resource="http://purl.org/dc/dcmitype/StillImage" />
        <dc:title />
      </cc:Work>
    </rdf:RDF>
  </metadata>
  <defs
     id="defs19" />
  <sodipodi:namedview
     inkscape:document-rotation="0"
     pagecolor="#ffffff"
     bordercolor="#666666"
     borderopacity="1"
     objecttolerance="10"
     gridtolerance="10"
     guidetolerance="10"
     inkscape:pageopacity="0"
     inkscape:pageshadow="2"
     inkscape:window-width="3840"
     inkscape:window-height="2068"
     id="namedview17"
     showgrid="false"
     inkscape:zoom="1.3921165"
     inkscape:cx="26.27588"
     inkscape:cy="10.319338"
     inkscape:window-x="-12"
     inkscape:window-y="-12"
     inkscape:window-maximized="1"
     inkscape:current-layer="g14"
     fit-margin-top="0"
     fit-margin-left="0"
     fit-margin-right="0"
     fit-margin-bottom="0" />
  <g
     id="g14"
     transform="translate(-170.99871,-44.999898)">
    <path
       id="rect841"
       style="fill:#36a786;fill-opacity:1;stroke:none;stroke-width:39.0983"
       d="m 306.3116,119.96666 c -6.04996,0 -11.90944,2.12164 -16.55768,5.99402 l -103.44756,86.2063 c -8.36373,6.97065 -11.4688,18.43077 -7.76193,28.67035 3.70687,10.23959 13.43175,17.05941 24.3196,17.05941 h 77.58568 v 198.27449 c 0,14.28267 11.57923,25.8619 25.86189,25.8619 h 344.82522 c 14.28266,0 25.86189,-11.57923 25.86189,-25.8619 V 145.82855 c 0,-14.28266 -11.57923,-25.86189 -25.86189,-25.86189 z"
       sodipodi:nodetypes="sccsscsssssss" />
    <path
       id="path850"
       style="font-style:normal;font-variant:normal;font-weight:bold;font-stretch:normal;font-size:266.667px;line-height:1.25;font-family:'Source Code Pro';-inkscape-font-specification:'Source Code Pro Bold';letter-spacing:0px;word-spacing:0px;fill:#ffffff;fill-opacity:1;stroke:none;stroke-width:1.5529"
       d="M 382.41638,435.9986 V 166.00119 h 95.65859 q 21.53355,0 40.16833,4.14106 19.04889,4.14106 33.12851,14.07962 14.49374,9.52445 22.77587,25.6746 8.28214,16.15015 8.28214,40.16832 0,29.81568 -13.25142,49.27869 -13.25141,19.04889 -34.78494,28.57333 L 595.2671,435.9986 h -68.32756 l -51.76331,-97.31501 h -31.88619 v 97.31501 z m 60.87366,-145.76548 h 29.81565 q 49.27867,0 49.27867,-40.16833 0,-19.8771 -12.42319,-27.74512 -12.42319,-7.86803 -36.85548,-7.86803 h -29.81565 z" />
  </g>
</svg>
